<svg xmlns="http://www.w3.org/2000/svg" viewBox="0 0 223.03 56"><defs><style>.cls-1{fill:#ff5e14;}.cls-2{fill:#00235a;}</style></defs><title>Asset 4</title><g id="Layer_2" data-name="Layer 2"><g id="Layer_1-2" data-name="Layer 1"><path class="cls-1" d="M32.16,0a2.16,2.16,0,0,1,1.45,2.35c-.06,1.31,0,2.62,0,3.94.62.2,1.2.41,1.8.56a.63.63,0,0,0,.49-.2,2.91,2.91,0,0,1,2.66-1.07c1.16.06,2.33,0,3.54,0a4.72,4.72,0,0,1,2.54-3.24A4.56,4.56,0,0,1,47.7,2a4.67,4.67,0,0,1-.16,9.14c-2.38.48-4.22-.73-5.51-3.66-1.35,0-2.72,0-4.08,0a.85.85,0,0,0-.5.28c-.83.81-1.66,1.64-2.47,2.48a.64.64,0,0,1-.76.19,18.66,18.66,0,1,0,0,35.17.63.63,0,0,1,.76.19c.8.82,1.6,1.64,2.44,2.43a1.27,1.27,0,0,0,.75.32c1.29,0,2.58,0,3.86,0,1.29-3,3.19-4.18,5.61-3.63a4.66,4.66,0,0,1-.37,9.18c-2.28.37-4.27-1-5.21-3.68-1.25,0-2.52,0-3.79,0a2.48,2.48,0,0,1-2.22-.93.76.76,0,0,0-1-.24c-.45.19-.93.3-1.43.46,0,1.32,0,2.64,0,3.94A2.15,2.15,0,0,1,32.16,56H23.84a2.13,2.13,0,0,1-1.44-2.35c.05-1.3,0-2.62,0-3.92a.83.83,0,0,0-.18-.08,22.56,22.56,0,0,1-5.33-2.21c-.3-.17-.42,0-.59.17-.91.91-1.82,1.84-2.74,2.74a1.85,1.85,0,0,1-2.81,0q-2.56-2.55-5.1-5.11a1.85,1.85,0,0,1,0-2.84c.9-.91,1.8-1.81,2.72-2.7a.53.53,0,0,0,.1-.74c-.69-1.56-1.34-3.14-2-4.71a4.73,4.73,0,0,1-.2-.67H2.09A1.87,1.87,0,0,1,0,31.5V24.56a1.9,1.9,0,0,1,2.15-2.15H6.31a23.31,23.31,0,0,1,2.24-5.54.64.64,0,0,0-.14-.53c-.9-.93-1.83-1.83-2.74-2.75a1.87,1.87,0,0,1,0-2.85q2.52-2.53,5.06-5.06a1.88,1.88,0,0,1,2.89,0c.9.9,1.81,1.8,2.7,2.72a.47.47,0,0,0,.69.11,10,10,0,0,1,1.45-.76c1.29-.53,2.6-1,4-1.55,0-1.23,0-2.55,0-3.85A2.13,2.13,0,0,1,23.84,0ZM49.45,6.53a2.79,2.79,0,0,0-2.76-2.8,2.83,2.83,0,0,0-2.82,2.81,2.78,2.78,0,0,0,2.77,2.78A2.75,2.75,0,0,0,49.45,6.53Zm0,42.91a2.79,2.79,0,0,0-5.58.06,2.79,2.79,0,1,0,5.58-.06Z"/><path class="cls-1" d="M34.54,16.8c.93,0,1.8,0,2.67,0,.12,0,.27-.28.33-.46A4.67,4.67,0,1,1,42,22.41a4.6,4.6,0,0,1-4.35-3.07.83.83,0,0,0-1-.68c-.71.05-1.42,0-2.13,0a.62.62,0,0,0-.48.23c-1,1.8-2,3.61-3,5.42,0,0,0,.07,0,.13a5.23,5.23,0,0,1,1.46,2.31c0,.14.35.27.54.27,1.73,0,3.46,0,5.19,0s3.47,0,5.2,0a.56.56,0,0,0,.65-.46,4.59,4.59,0,0,1,5.08-3.22,4.66,4.66,0,1,1-5.06,6.07c-.13-.39-.28-.54-.71-.53q-5.13,0-10.28,0c-.42,0-.55.14-.73.52a11,11,0,0,1-1.13,1.84c-.15.22-.23.35-.09.61,1,1.7,1.87,3.41,2.82,5.11a.73.73,0,0,0,.5.3c.82,0,1.64,0,2.46,0,.35,0,.49-.1.6-.45a4.66,4.66,0,0,1,9,.44,4.69,4.69,0,0,1-3.3,5.44,4.63,4.63,0,0,1-5.66-3,.72.72,0,0,0-.87-.61c-.71,0-1.42,0-2.2,0v3.26c0,1.07,0,1.08-1,1.41-6.54,2-12.38.79-17.31-4a15.83,15.83,0,0,1-5-12.52,16.7,16.7,0,0,1,14.07-16,16.48,16.48,0,0,1,8.81.93.6.6,0,0,1,.44.69C34.53,14.27,34.54,15.51,34.54,16.8ZM51.32,28a2.79,2.79,0,0,0-2.77-2.79A2.8,2.8,0,1,0,51.32,28ZM44.8,17.71A2.8,2.8,0,1,0,42,20.54,2.8,2.8,0,0,0,44.8,17.71ZM42,41.06a2.8,2.8,0,0,0,0-5.6,2.84,2.84,0,0,0-2.8,2.84A2.8,2.8,0,0,0,42,41.06ZM30.8,28A2.8,2.8,0,1,0,28,30.8,2.82,2.82,0,0,0,30.8,28ZM15,26.62c0,.07,0,.15,0,.22,0,.7.31,1.13.88,1.16s1-.38,1-1.07a9.21,9.21,0,0,1,4.12-7.4,1,1,0,0,0,.36-1.4c-.33-.47-.86-.52-1.44-.12A11.06,11.06,0,0,0,15,26.62Z"/><path class="cls-2" d="M79,16.12a13.68,13.68,0,0,1,5.73,5.44,16.17,16.17,0,0,1,2,8.19,15.92,15.92,0,0,1-2,8.15A13.71,13.71,0,0,1,79,43.3a18.55,18.55,0,0,1-8.59,1.91H59.59v-31H70.43A18.55,18.55,0,0,1,79,16.12ZM77.76,37.26q2.65-2.67,2.66-7.51a10.41,10.41,0,0,0-2.66-7.57q-2.67-2.73-7.55-2.73h-4.4V39.92h4.4C73.46,39.92,76,39,77.76,37.26Z"/><path class="cls-2" d="M114.66,20.61v24.6H108.4V42.1a8.19,8.19,0,0,1-3.13,2.51,9.7,9.7,0,0,1-4.2.91A10.45,10.45,0,0,1,96,44.3a8.49,8.49,0,0,1-3.49-3.6A11.91,11.91,0,0,1,91.21,35V20.61h6.22V34.15a6.36,6.36,0,0,0,1.47,4.51,5.18,5.18,0,0,0,4,1.58,5.27,5.27,0,0,0,4-1.58,6.4,6.4,0,0,0,1.46-4.51V20.61Z"/><path class="cls-2" d="M124.79,44.52a9.6,9.6,0,0,1-3.8-3,7.53,7.53,0,0,1-1.53-4.13h6.26a3.42,3.42,0,0,0,1.4,2.35,4.89,4.89,0,0,0,3,.93,4.69,4.69,0,0,0,2.78-.71,2.14,2.14,0,0,0,1-1.82,1.93,1.93,0,0,0-1.22-1.8,23.69,23.69,0,0,0-3.89-1.31,33.29,33.29,0,0,1-4.51-1.37,7.91,7.91,0,0,1-3-2.18,5.85,5.85,0,0,1-1.26-4,6.39,6.39,0,0,1,1.17-3.73,7.89,7.89,0,0,1,3.38-2.67,12.69,12.69,0,0,1,5.17-1,10.59,10.59,0,0,1,7,2.19,8.17,8.17,0,0,1,2.89,5.93h-5.95A3.26,3.26,0,0,0,132.5,26a5.54,5.54,0,0,0-5.51-.24,2,2,0,0,0-.91,1.73,2,2,0,0,0,1.24,1.89,19.69,19.69,0,0,0,3.87,1.31,32.79,32.79,0,0,1,4.39,1.37,7.79,7.79,0,0,1,3,2.2,6.05,6.05,0,0,1,1.31,3.93A6.48,6.48,0,0,1,138.71,42a7.66,7.66,0,0,1-3.37,2.64,12.76,12.76,0,0,1-5.13,1A12.89,12.89,0,0,1,124.79,44.52Z"/><path class="cls-2" d="M152.24,25.71V37.62a2.34,2.34,0,0,0,.6,1.79,2.94,2.94,0,0,0,2,.56h2.89v5.24h-3.91q-7.86,0-7.86-7.64V25.71H143v-5.1H146V14.52h6.26v6.09h5.51v5.1Z"/><path class="cls-1" d="M171.58,21.36A8.71,8.71,0,0,1,176,20.25v6.53h-1.64a6.28,6.28,0,0,0-4.42,1.38c-1,.91-1.49,2.51-1.49,4.79V45.21h-6.22V20.61h6.22v3.81A8.74,8.74,0,0,1,171.58,21.36Z"/><path class="cls-1" d="M180.6,16.63a3.44,3.44,0,0,1-1.09-2.6,3.46,3.46,0,0,1,1.09-2.6,4.1,4.1,0,0,1,5.46,0,3.65,3.65,0,0,1,0,5.2,4.1,4.1,0,0,1-5.46,0Zm5.79,4v24.6h-6.22V20.61Z"/><path class="cls-1" d="M206.11,45.21l-5.06-7.64-4.49,7.64H189.9l8-12.35-8.13-12.25h7l5,7.59,4.53-7.59H213L205,32.86l8.17,12.35Z"/><path class="cls-1" d="M216.48,44.48a3.65,3.65,0,0,1,0-5.2,3.88,3.88,0,0,1,2.78-1,3.76,3.76,0,0,1,2.71,1,3.72,3.72,0,0,1,0,5.2,3.76,3.76,0,0,1-2.71,1A3.88,3.88,0,0,1,216.48,44.48Z"/></g></g></svg>